<?xml version="1.0" standalone="no"?>
<!DOCTYPE svg PUBLIC "-//W3C//DTD SVG 20010904//EN"
 "http://www.w3.org/TR/2001/REC-SVG-20010904/DTD/svg10.dtd">
<svg version="1.0" xmlns="http://www.w3.org/2000/svg"
 width="1134.000000pt" height="1134.000000pt" viewBox="0 0 1134.000000 1134.000000"
 preserveAspectRatio="xMidYMid meet">
<metadata>
Created by potrace 1.14, written by Peter Selinger 2001-2017
</metadata>
<g transform="translate(0.000000,1134.000000) scale(0.100000,-0.100000)"
fill="#000000" stroke="none">
<path d="M5398 11336 c-1 -2 -56 -7 -120 -10 -65 -4 -128 -9 -140 -11 -22 -3
-99 -12 -180 -20 -21 -2 -50 -6 -65 -9 -26 -5 -68 -11 -140 -20 -24 -4 -66
-11 -123 -21 -8 -2 -60 -13 -116 -24 -55 -12 -109 -23 -120 -25 -10 -2 -39 -9
-64 -16 -25 -7 -52 -14 -61 -15 -32 -6 -305 -87 -374 -110 -311 -107 -449
-163 -730 -301 -140 -68 -202 -101 -371 -197 -59 -34 -332 -208 -359 -230 -5
-4 -48 -35 -95 -69 -78 -56 -258 -195 -270 -208 -3 -3 -18 -16 -35 -29 -115
-89 -381 -342 -540 -516 -44 -48 -85 -92 -91 -99 -9 -9 -145 -174 -191 -230
-102 -126 -334 -465 -418 -611 -156 -271 -265 -490 -359 -720 -32 -77 -63
-153 -70 -170 -14 -31 -76 -214 -119 -350 -55 -172 -152 -586 -172 -735 -3
-25 -8 -52 -10 -60 -6 -22 -17 -112 -30 -245 -3 -33 -8 -71 -11 -85 -26 -148
-25 -854 1 -1070 3 -19 7 -60 11 -90 3 -30 7 -66 9 -80 2 -14 7 -52 10 -85 4
-33 8 -62 10 -65 2 -4 6 -28 10 -54 3 -27 12 -81 20 -120 8 -39 16 -82 19 -96
2 -14 10 -47 16 -75 6 -27 13 -59 16 -70 2 -11 7 -33 11 -50 4 -16 7 -32 8
-35 14 -87 153 -522 229 -716 78 -201 223 -508 320 -678 31 -54 56 -102 56
-106 0 -5 3 -10 8 -12 4 -1 16 -19 26 -38 87 -159 417 -621 541 -756 5 -6 33
-38 60 -69 165 -192 414 -437 600 -590 26 -22 53 -45 59 -50 41 -38 256 -200
382 -288 131 -91 187 -127 322 -208 516 -310 1144 -555 1738 -678 143 -29 343
-63 444 -75 109 -14 128 -16 179 -21 262 -27 905 -27 1073 0 13 2 55 6 93 10
39 3 77 8 85 10 8 2 40 6 70 10 30 3 66 7 80 10 54 9 146 25 170 29 14 2 70
14 125 26 55 12 111 24 125 26 99 20 396 105 545 156 317 109 680 271 938 417
20 11 52 30 71 40 113 64 477 299 496 321 3 3 32 25 65 49 55 41 245 192 271
216 7 5 38 33 70 60 152 130 393 371 519 519 28 32 57 66 66 75 14 14 64 76
174 215 22 28 49 64 61 80 11 17 50 72 85 121 75 105 171 254 275 430 160 270
391 788 468 1050 10 33 24 76 31 95 13 36 100 355 109 400 3 14 18 90 35 170
16 80 32 165 36 190 3 25 8 52 10 60 2 8 6 38 10 65 3 28 7 66 10 85 33 270
39 377 40 705 0 258 -7 462 -19 535 -3 14 -7 52 -10 85 -43 461 -183 1018
-376 1500 -77 193 -233 520 -301 633 -21 35 -39 66 -39 69 0 22 -276 443 -386
588 -64 85 -232 292 -264 325 -8 9 -35 38 -58 65 -75 85 -264 276 -367 370
-54 50 -108 99 -120 110 -12 11 -46 40 -76 64 -30 25 -61 51 -69 58 -15 14
-192 151 -241 186 -345 252 -758 483 -1164 652 -88 37 -164 68 -170 69 -5 2
-21 7 -35 13 -107 43 -496 163 -610 188 -8 2 -58 13 -110 25 -52 12 -115 25
-140 30 -25 5 -54 11 -65 13 -11 3 -42 8 -70 12 -27 5 -52 9 -55 10 -3 1 -30
5 -60 9 -30 5 -62 10 -70 11 -8 1 -44 6 -80 10 -36 4 -73 9 -83 11 -10 2 -55
6 -100 9 -45 4 -102 9 -127 11 -51 6 -666 14 -672 10z"/>
</g>
</svg>
